<?xml version="1.0" encoding="UTF-8" standalone="no"?>
<svg
   data-v-0dd9719b=""
   version="1.0"
   width="250"
   height="250"
   viewBox="0 0 250 250"
   preserveAspectRatio="xMidYMid"
   color-interpolation-filters="sRGB"
   id="svg19"
   sodipodi:docname="logo_without_name.svg"
   inkscape:version="1.3.2 (091e20ef0f, 2023-11-25)"
   xmlns:inkscape="http://www.inkscape.org/namespaces/inkscape"
   xmlns:sodipodi="http://sodipodi.sourceforge.net/DTD/sodipodi-0.dtd"
   xmlns="http://www.w3.org/2000/svg"
   xmlns:svg="http://www.w3.org/2000/svg">
  <sodipodi:namedview
     id="namedview19"
     pagecolor="#ffffff"
     bordercolor="#000000"
     borderopacity="0.25"
     inkscape:showpageshadow="2"
     inkscape:pageopacity="0.0"
     inkscape:pagecheckerboard="0"
     inkscape:deskcolor="#d1d1d1"
     inkscape:zoom="0.83155758"
     inkscape:cx="618.71843"
     inkscape:cy="473.80964"
     inkscape:window-width="2560"
     inkscape:window-height="1380"
     inkscape:window-x="0"
     inkscape:window-y="0"
     inkscape:window-maximized="1"
     inkscape:current-layer="g19" />
  <rect
     data-v-0dd9719b=""
     x="-27.210884"
     y="-54.846939"
     width="202.79343%"
     height="198.42174%"
     fill="#ffffff"
     fill-opacity="0"
     class="background"
     id="rect1"
     style="stroke-width:2.00596" />
  <rect
     data-v-0dd9719b=""
     x="-27.210884"
     y="-54.846939"
     width="202.79343%"
     height="198.42174%"
     fill="url(#watermark)"
     fill-opacity="1"
     class="watermarklayer"
     id="rect2"
     style="stroke-width:2.00596" />
  <g
     data-v-0dd9719b=""
     fill="#505e86"
     class="icon-text-wrapper icon-svg-group iconsvg"
     transform="matrix(3.3131928,0,0,3.0894206,7.4374895,8.1536698)"
     id="g19">
    <g
       class="iconsvg-imagesvg"
       transform="translate(4.7185039,7.4772778)"
       opacity="1"
       id="g9">
      <g
         id="g8">
        <rect
           fill="#505e86"
           fill-opacity="0"
           stroke-width="2"
           x="0"
           y="0"
           width="60"
           height="58.382229"
           class="image-rect"
           id="rect3" />
        <svg
           filter="url(#colors1799368424)"
           x="0"
           y="0"
           width="60"
           height="58.382229"
           filtersec="colorsf4564184669"
           class="image-svg-svg primary"
           style="overflow:visible"
           version="1.1"
           id="svg6">
          <svg
             viewBox="-0.014941392 0.015548555 107.87822 104.96991"
             version="1.1"
             id="svg5"
             width="100%"
             height="100%">
            <title
               id="title3">资源 14</title>
            <path
               d="M 27.74,5.39 C 29.59,4.2 31.28,3 33.11,2 a 15.54,15.54 0 0 1 4.35,-1.65 c 1.45,-0.29 2.56,0.9 3.75,1.59 C 42.92,3 44.62,4 46.32,5 c 1.7,1 3.27,2 4.93,3 3.43,2 6.9,3.94 10.32,5.95 q 5.7,3.33 11.34,6.76 a 1.28,1.28 0 0 1 0.52,0.93 v 21.92 a 1.43,1.43 0 0 1 -0.49,1.07 c -2.4,1.47 -4.85,2.87 -7.28,4.29 a 3.76,3.76 0 0 1 -0.67,0.17 V 45.44 L 64.81,26.63 a 1.14,1.14 0 0 0 -0.66,-1.18 c -3.37,-1.86 -6.7,-3.77 -10,-5.68 C 51,18 47.94,16.24 44.85,14.49 A 60.55,60.55 0 0 1 39,11.21 c -1.76,-1.27 -3,-0.17 -4.41,0.44 -1.41,0.61 -2.26,1.5 -3.56,2 A 38,38 0 0 0 27,16 q -4.77,2.67 -9.56,5.3 A 5.06,5.06 0 0 1 16.5,21.57 V 15.8 a 28.56,28.56 0 0 0 0,-3.07 1.45,1.45 0 0 1 0.91,-1.58 C 19.9,9.73 22.45,8.32 25,6.82 m 20.46,37.87 c -0.62,0.44 -0.92,0.69 -1.24,0.88 l -15.36,9 c -0.83,0.49 -1.64,1 -2.5,1.44 a 1.37,1.37 0 0 0 -0.85,1.4 v 30.3 a 1.41,1.41 0 0 0 0.88,1.44 c 4.72,2.65 9.4,5.35 14.1,8 1.38,0.79 2.75,1.58 4.13,2.39 0.37,0.21 0.72,0.45 1.21,0.76 a 8.89,8.89 0 0 1 -1.08,1 c -1.69,1 -3.4,2.07 -5.11,3.1 a 4.1,4.1 0 0 1 -4.44,-0.14 c -5.87,-3.44 -11.7,-7 -17.54,-10.43 A 1.39,1.39 0 0 1 16.84,92.5 V 70.67 52.94 a 1.81,1.81 0 0 1 0.91,-1.74 c 2.82,-1.68 5.62,-3.37 8.45,-5 2.83,-1.63 5.83,-3.41 8.73,-5.14 a 4.08,4.08 0 0 1 4.19,-0.2 c 2.04,1.14 4.03,2.43 6.34,3.83 z"
               fill="#000000"
               id="path3" />
            <path
               d="m 8.55,69.62 c -1.83,-1 -3.42,-2 -5,-2.87 A 22.92,22.92 0 0 0 0.87,65.38 1.24,1.24 0 0 1 0,64 V 47.47 41.99 a 2,2 0 0 1 1.26,-2 c 2.76,-1.52 5.5,-3.09 8.23,-4.66 q 7,-4 14,-8.09 c 3.3,-1.91 6.63,-3.78 9.87,-5.79 a 5.17,5.17 0 0 1 6,0 c 5.18,3.17 10.42,6.24 15.67,9.28 a 2.63,2.63 0 0 1 1.61,2.72 c -0.12,2.09 0,4.19 0,6.28 0,0.45 -0.07,0.9 -0.12,1.55 -1.24,-0.67 -2.34,-1.24 -3.42,-1.85 q -7.93,-4.47 -15.84,-9 a 1.61,1.61 0 0 0 -1.82,0 C 29.38,34 23.31,37.48 17.23,41 14.7,42.45 12.17,43.89 9.62,45.31 a 1.76,1.76 0 0 0 -1,1.75 v 21.42 c 0,0.26 -0.04,0.52 -0.07,1.14 z M 62.26,4.76 C 63.53,3.92 64.66,3.12 65.84,2.4 67.02,1.68 68.33,1 69.56,0.3 a 1.63,1.63 0 0 1 1.84,0 c 4.8,2.7 9.6,5.46 14.43,8.21 1.47,0.84 2.91,1.73 4.36,2.58 a 2,2 0 0 1 1.18,2 c -0.09,7.13 -0.11,14.27 -0.14,21.41 v 17.43 a 2.13,2.13 0 0 1 -1,2 c -2.45,1.59 -4.87,3.22 -7.39,4.7 -3.48,2.06 -7,4 -10.58,6 A 2.79,2.79 0 0 1 70.1,64.9 c -2.52,-1.23 -4.94,-2.65 -7.64,-4.13 0.61,-0.43 0.93,-0.69 1.28,-0.89 q 9,-5.25 18,-10.46 c 0.9,-0.52 0.82,-1.28 0.82,-2.06 V 36 c 0,-6 -0.11,-11.89 0,-17.83 a 2.27,2.27 0 0 0 -1.42,-2.29 c -6,-3.4 -12,-6.86 -18,-10.31 A 6.76,6.76 0 0 1 62.26,4.76 Z M 43.15,56.21 a 11.34,11.34 0 0 1 0.13,1.2 q 0,8.72 -0.05,17.44 a 22.79,22.79 0 0 1 0,3 c -0.2,1.37 0.49,1.9 1.59,2.51 4.42,2.44 8.75,5 13.11,7.56 l 9.56,5.54 a 3.87,3.87 0 0 1 0.59,0.36 c 1.85,1.62 3.57,1.31 5.6,0.1 5.57,-3.34 11.27,-6.47 16.92,-9.68 0.22,-0.13 0.46,-0.21 0.67,-0.31 0.1,0.11 0.18,0.15 0.18,0.2 0,3 0.07,5.91 0,8.86 a 1.26,1.26 0 0 1 -0.61,0.88 c -4.19,2.43 -8.4,4.83 -12.6,7.24 -1.79,1 -3.55,2.08 -5.35,3.08 a 4.39,4.39 0 0 1 -4.71,-0.12 c -5.09,-3 -10.21,-6 -15.33,-9 Q 44.18,89.98 35.48,84.93 a 1.51,1.51 0 0 1 -0.89,-1.49 c 0,-6.68 0,-13.35 -0.1,-20 a 3.36,3.36 0 0 1 2,-3.55 c 1.69,-0.83 3.25,-1.93 4.89,-2.87 a 13.68,13.68 0 0 1 1.77,-0.81 z"
               fill="#000000"
               id="path4" />
            <path
               d="m 51.64,63.8 c 2.07,1.16 3.91,2.14 5.7,3.19 4.36,2.54 8.72,5.09 13,7.69 a 2.48,2.48 0 0 0 2.85,-0.08 c 3.55,-2.07 7.13,-4.1 10.69,-6.16 4.86,-2.81 9.69,-5.64 14.57,-8.41 a 1.46,1.46 0 0 0 0.87,-1.47 v -15 q 0,-3.44 0.08,-6.87 a 4.11,4.11 0 0 1 0.13,-0.68 3.49,3.49 0 0 1 0.75,0.23 c 2.29,1.28 4.58,2.55 6.84,3.89 a 1.61,1.61 0 0 1 0.67,1.17 c 0.07,7.57 0.08,15.15 0.07,22.72 a 1.37,1.37 0 0 1 -0.61,1 Q 97.16,70.85 86.94,76.66 c -4.57,2.63 -9.16,5.24 -13.71,7.9 a 2.75,2.75 0 0 1 -3.2,-0.12 C 66.5,82.27 62.88,80.25 59.29,78.17 l -6.95,-4.08 a 1.62,1.62 0 0 1 -0.85,-1.63 c 0.07,-2.39 0,-4.78 0,-7.17 0.02,-0.39 0.08,-0.77 0.15,-1.49 z"
               fill="#000000"
               id="path5" />
          </svg>
        </svg>
        <defs
           id="defs8">
          <filter
             id="colors1799368424"
             x="0"
             y="0"
             width="1"
             height="1">
            <feColorMatrix
               type="matrix"
               values="0 0 0 0 0.796875  0 0 0 0 0.1328125  0 0 0 0 0.16015625  0 0 0 1 0"
               class="icon-fecolormatrix"
               id="feColorMatrix6" />
          </filter>
          <filter
             id="colorsf4564184669">
            <feColorMatrix
               type="matrix"
               values="0 0 0 0 0.99609375  0 0 0 0 0.99609375  0 0 0 0 0.99609375  0 0 0 1 0"
               class="icon-fecolormatrix"
               id="feColorMatrix7" />
          </filter>
          <filter
             id="colorsb9590382200">
            <feColorMatrix
               type="matrix"
               values="0 0 0 0 0  0 0 0 0 0  0 0 0 0 0  0 0 0 1 0"
               class="icon-fecolormatrix"
               id="feColorMatrix8" />
          </filter>
        </defs>
      </g>
    </g>
  </g>
  <defs
     v-gra="od"
     id="defs19" />
</svg>
