<?xml version="1.0" encoding="UTF-8" standalone="no"?>
<svg
   data-v-0dd9719b=""
   version="1.0"
   width="600"
   height="250"
   viewBox="0 0 600 250"
   preserveAspectRatio="xMidYMid"
   color-interpolation-filters="sRGB"
   id="svg19"
   sodipodi:docname="logo.svg"
   inkscape:version="1.3.2 (091e20ef0f, 2023-11-25)"
   xmlns:inkscape="http://www.inkscape.org/namespaces/inkscape"
   xmlns:sodipodi="http://sodipodi.sourceforge.net/DTD/sodipodi-0.dtd"
   xmlns="http://www.w3.org/2000/svg"
   xmlns:svg="http://www.w3.org/2000/svg">
  <sodipodi:namedview
     id="namedview19"
     pagecolor="#ffffff"
     bordercolor="#000000"
     borderopacity="0.25"
     inkscape:showpageshadow="2"
     inkscape:pageopacity="0.0"
     inkscape:pagecheckerboard="0"
     inkscape:deskcolor="#d1d1d1"
     inkscape:zoom="0.83155758"
     inkscape:cx="618.11715"
     inkscape:cy="474.41093"
     inkscape:window-width="1351"
     inkscape:window-height="943"
     inkscape:window-x="0"
     inkscape:window-y="0"
     inkscape:window-maximized="0"
     inkscape:current-layer="svg19" />
  <rect
     data-v-0dd9719b=""
     x="-27.210884"
     y="-54.846939"
     width="202.79343%"
     height="198.42174%"
     fill="#ffffff"
     fill-opacity="0"
     class="background"
     id="rect1"
     style="stroke-width:2.00596" />
  <rect
     data-v-0dd9719b=""
     x="-27.210884"
     y="-54.846939"
     width="202.79343%"
     height="198.42174%"
     fill="url(#watermark)"
     fill-opacity="1"
     class="watermarklayer"
     id="rect2"
     style="stroke-width:2.00596" />
  <g
     data-v-0dd9719b=""
     fill="#505e86"
     class="icon-text-wrapper icon-svg-group iconsvg"
     transform="matrix(3.3131928,0,0,3.0894206,7.4374895,8.1536698)"
     id="g19">
    <g
       class="iconsvg-imagesvg"
       transform="translate(0,7.088026)"
       opacity="1"
       id="g9">
      <g
         id="g8">
        <rect
           fill="#505e86"
           fill-opacity="0"
           stroke-width="2"
           x="0"
           y="0"
           width="60"
           height="58.382229"
           class="image-rect"
           id="rect3" />
        <svg
           filter="url(#colors1799368424)"
           x="0"
           y="0"
           width="60"
           height="58.382229"
           filtersec="colorsf4564184669"
           class="image-svg-svg primary"
           style="overflow:visible"
           version="1.1"
           id="svg6">
          <svg
             viewBox="-0.014941392 0.015548555 107.87822 104.96991"
             version="1.1"
             id="svg5"
             width="100%"
             height="100%">
            <title
               id="title3">资源 14</title>
            <path
               d="M 27.74,5.39 C 29.59,4.2 31.28,3 33.11,2 a 15.54,15.54 0 0 1 4.35,-1.65 c 1.45,-0.29 2.56,0.9 3.75,1.59 C 42.92,3 44.62,4 46.32,5 c 1.7,1 3.27,2 4.93,3 3.43,2 6.9,3.94 10.32,5.95 q 5.7,3.33 11.34,6.76 a 1.28,1.28 0 0 1 0.52,0.93 v 21.92 a 1.43,1.43 0 0 1 -0.49,1.07 c -2.4,1.47 -4.85,2.87 -7.28,4.29 a 3.76,3.76 0 0 1 -0.67,0.17 V 45.44 L 64.81,26.63 a 1.14,1.14 0 0 0 -0.66,-1.18 c -3.37,-1.86 -6.7,-3.77 -10,-5.68 C 51,18 47.94,16.24 44.85,14.49 A 60.55,60.55 0 0 1 39,11.21 c -1.76,-1.27 -3,-0.17 -4.41,0.44 -1.41,0.61 -2.26,1.5 -3.56,2 A 38,38 0 0 0 27,16 q -4.77,2.67 -9.56,5.3 A 5.06,5.06 0 0 1 16.5,21.57 V 15.8 a 28.56,28.56 0 0 0 0,-3.07 1.45,1.45 0 0 1 0.91,-1.58 C 19.9,9.73 22.45,8.32 25,6.82 m 20.46,37.87 c -0.62,0.44 -0.92,0.69 -1.24,0.88 l -15.36,9 c -0.83,0.49 -1.64,1 -2.5,1.44 a 1.37,1.37 0 0 0 -0.85,1.4 v 30.3 a 1.41,1.41 0 0 0 0.88,1.44 c 4.72,2.65 9.4,5.35 14.1,8 1.38,0.79 2.75,1.58 4.13,2.39 0.37,0.21 0.72,0.45 1.21,0.76 a 8.89,8.89 0 0 1 -1.08,1 c -1.69,1 -3.4,2.07 -5.11,3.1 a 4.1,4.1 0 0 1 -4.44,-0.14 c -5.87,-3.44 -11.7,-7 -17.54,-10.43 A 1.39,1.39 0 0 1 16.84,92.5 V 70.67 52.94 a 1.81,1.81 0 0 1 0.91,-1.74 c 2.82,-1.68 5.62,-3.37 8.45,-5 2.83,-1.63 5.83,-3.41 8.73,-5.14 a 4.08,4.08 0 0 1 4.19,-0.2 c 2.04,1.14 4.03,2.43 6.34,3.83 z"
               fill="#000000"
               id="path3" />
            <path
               d="m 8.55,69.62 c -1.83,-1 -3.42,-2 -5,-2.87 A 22.92,22.92 0 0 0 0.87,65.38 1.24,1.24 0 0 1 0,64 V 47.47 41.99 a 2,2 0 0 1 1.26,-2 c 2.76,-1.52 5.5,-3.09 8.23,-4.66 q 7,-4 14,-8.09 c 3.3,-1.91 6.63,-3.78 9.87,-5.79 a 5.17,5.17 0 0 1 6,0 c 5.18,3.17 10.42,6.24 15.67,9.28 a 2.63,2.63 0 0 1 1.61,2.72 c -0.12,2.09 0,4.19 0,6.28 0,0.45 -0.07,0.9 -0.12,1.55 -1.24,-0.67 -2.34,-1.24 -3.42,-1.85 q -7.93,-4.47 -15.84,-9 a 1.61,1.61 0 0 0 -1.82,0 C 29.38,34 23.31,37.48 17.23,41 14.7,42.45 12.17,43.89 9.62,45.31 a 1.76,1.76 0 0 0 -1,1.75 v 21.42 c 0,0.26 -0.04,0.52 -0.07,1.14 z M 62.26,4.76 C 63.53,3.92 64.66,3.12 65.84,2.4 67.02,1.68 68.33,1 69.56,0.3 a 1.63,1.63 0 0 1 1.84,0 c 4.8,2.7 9.6,5.46 14.43,8.21 1.47,0.84 2.91,1.73 4.36,2.58 a 2,2 0 0 1 1.18,2 c -0.09,7.13 -0.11,14.27 -0.14,21.41 v 17.43 a 2.13,2.13 0 0 1 -1,2 c -2.45,1.59 -4.87,3.22 -7.39,4.7 -3.48,2.06 -7,4 -10.58,6 A 2.79,2.79 0 0 1 70.1,64.9 c -2.52,-1.23 -4.94,-2.65 -7.64,-4.13 0.61,-0.43 0.93,-0.69 1.28,-0.89 q 9,-5.25 18,-10.46 c 0.9,-0.52 0.82,-1.28 0.82,-2.06 V 36 c 0,-6 -0.11,-11.89 0,-17.83 a 2.27,2.27 0 0 0 -1.42,-2.29 c -6,-3.4 -12,-6.86 -18,-10.31 A 6.76,6.76 0 0 1 62.26,4.76 Z M 43.15,56.21 a 11.34,11.34 0 0 1 0.13,1.2 q 0,8.72 -0.05,17.44 a 22.79,22.79 0 0 1 0,3 c -0.2,1.37 0.49,1.9 1.59,2.51 4.42,2.44 8.75,5 13.11,7.56 l 9.56,5.54 a 3.87,3.87 0 0 1 0.59,0.36 c 1.85,1.62 3.57,1.31 5.6,0.1 5.57,-3.34 11.27,-6.47 16.92,-9.68 0.22,-0.13 0.46,-0.21 0.67,-0.31 0.1,0.11 0.18,0.15 0.18,0.2 0,3 0.07,5.91 0,8.86 a 1.26,1.26 0 0 1 -0.61,0.88 c -4.19,2.43 -8.4,4.83 -12.6,7.24 -1.79,1 -3.55,2.08 -5.35,3.08 a 4.39,4.39 0 0 1 -4.71,-0.12 c -5.09,-3 -10.21,-6 -15.33,-9 Q 44.18,89.98 35.48,84.93 a 1.51,1.51 0 0 1 -0.89,-1.49 c 0,-6.68 0,-13.35 -0.1,-20 a 3.36,3.36 0 0 1 2,-3.55 c 1.69,-0.83 3.25,-1.93 4.89,-2.87 a 13.68,13.68 0 0 1 1.77,-0.81 z"
               fill="#000000"
               id="path4" />
            <path
               d="m 51.64,63.8 c 2.07,1.16 3.91,2.14 5.7,3.19 4.36,2.54 8.72,5.09 13,7.69 a 2.48,2.48 0 0 0 2.85,-0.08 c 3.55,-2.07 7.13,-4.1 10.69,-6.16 4.86,-2.81 9.69,-5.64 14.57,-8.41 a 1.46,1.46 0 0 0 0.87,-1.47 v -15 q 0,-3.44 0.08,-6.87 a 4.11,4.11 0 0 1 0.13,-0.68 3.49,3.49 0 0 1 0.75,0.23 c 2.29,1.28 4.58,2.55 6.84,3.89 a 1.61,1.61 0 0 1 0.67,1.17 c 0.07,7.57 0.08,15.15 0.07,22.72 a 1.37,1.37 0 0 1 -0.61,1 Q 97.16,70.85 86.94,76.66 c -4.57,2.63 -9.16,5.24 -13.71,7.9 a 2.75,2.75 0 0 1 -3.2,-0.12 C 66.5,82.27 62.88,80.25 59.29,78.17 l -6.95,-4.08 a 1.62,1.62 0 0 1 -0.85,-1.63 c 0.07,-2.39 0,-4.78 0,-7.17 0.02,-0.39 0.08,-0.77 0.15,-1.49 z"
               fill="#000000"
               id="path5" />
          </svg>
        </svg>
        <defs
           id="defs8">
          <filter
             id="colors1799368424"
             x="0"
             y="0"
             width="1"
             height="1">
            <feColorMatrix
               type="matrix"
               values="0 0 0 0 0.796875  0 0 0 0 0.1328125  0 0 0 0 0.16015625  0 0 0 1 0"
               class="icon-fecolormatrix"
               id="feColorMatrix6" />
          </filter>
          <filter
             id="colorsf4564184669">
            <feColorMatrix
               type="matrix"
               values="0 0 0 0 0.99609375  0 0 0 0 0.99609375  0 0 0 0 0.99609375  0 0 0 1 0"
               class="icon-fecolormatrix"
               id="feColorMatrix7" />
          </filter>
          <filter
             id="colorsb9590382200">
            <feColorMatrix
               type="matrix"
               values="0 0 0 0 0  0 0 0 0 0  0 0 0 0 0  0 0 0 1 0"
               class="icon-fecolormatrix"
               id="feColorMatrix8" />
          </filter>
        </defs>
      </g>
    </g>
    <g
       transform="translate(67)"
       id="g18">
      <g
         data-gra="path-name"
         fill-rule=""
         class="tp-name iconsvg-namesvg"
         opacity="1"
         id="g14">
        <g
           id="g13">
          <g
             id="g10">
            <path
               d="m 40.69,-41.27 -1.1,4.93 H 29.12 L 21.39,0 H 7.35 l 7.73,-36.34 H 4.75 l 1.17,-4.93 z m 40.37,0 L 72.15,0 H 58.11 l 3.9,-18.39 H 54.02 L 50.12,0 H 36.08 l 8.77,-41.27 h 14.11 l -3.84,17.93 h 7.93 l 3.84,-17.93 z M 79.37,0 88.14,-41.27 h 27.37 l -1.04,4.93 h -13.26 l -2.73,12.55 h 11.11 l -1.04,4.88 H 97.44 L 94.45,-5 h 13.26 l -0.98,5 z"
               transform="translate(-4.75,41.27)"
               id="path9" />
          </g>
          <!---->
          <!---->
          <!---->
          <!---->
          <!---->
          <!---->
          <g
             data-gra="path-name-1"
             fill="#505e86"
             transform="translate(0,44.27)"
             id="g12">
            <g
               transform="scale(0.98209)"
               id="g11">
              <path
                 d="M 12.34,-9.94 H 8.68 q 0.07,-0.33 0.07,-0.9 v 0 q 0,-0.33 -0.05,-0.65 Q 8.66,-11.81 8.55,-12.07 8.44,-12.32 8.22,-12.46 8,-12.61 7.65,-12.61 v 0 q -0.4,0 -0.73,0.18 -0.33,0.18 -0.58,0.45 -0.26,0.28 -0.4,0.64 -0.14,0.37 -0.14,0.76 v 0 q 0,0.58 0.29,0.88 0.3,0.31 0.79,0.51 0.48,0.2 1.1,0.33 0.61,0.13 1.28,0.31 v 0 q 0.55,0.15 1.1,0.4 0.55,0.24 0.98,0.65 0.43,0.4 0.69,1.05 0.27,0.65 0.27,1.62 v 0 q 0,1.39 -0.55,2.34 -0.56,0.95 -1.52,1.54 -0.97,0.6 -2.31,0.86 -1.33,0.27 -2.9,0.27 v 0 Q 3.44,0.18 2.44,-0.03 1.43,-0.24 0.86,-0.48 v 0 Q 0.18,-0.77 -0.15,-1.15 v 0 L 0.6,-4.17 h 3.87 q -0.02,0.2 -0.04,0.54 -0.02,0.35 -0.02,0.54 v 0 q 0,0.27 0.06,0.56 0.07,0.28 0.21,0.52 0.15,0.25 0.41,0.4 0.27,0.16 0.66,0.16 v 0 q 0.44,0 0.78,-0.2 0.35,-0.2 0.58,-0.5 0.23,-0.3 0.35,-0.66 0.12,-0.36 0.12,-0.72 v 0 Q 7.58,-4.01 7.35,-4.34 7.12,-4.67 6.72,-4.9 6.32,-5.13 5.81,-5.3 5.29,-5.47 4.74,-5.64 v 0 Q 4.21,-5.8 3.63,-6.02 3.04,-6.24 2.56,-6.63 2.07,-7.03 1.75,-7.64 1.43,-8.24 1.43,-9.19 v 0 q 0,-1.41 0.72,-2.37 0.71,-0.96 1.81,-1.55 1.09,-0.6 2.39,-0.85 1.3,-0.25 2.46,-0.25 v 0 q 1.55,0 2.66,0.36 1.11,0.36 1.69,0.85 v 0 z m 9.65,-4.27 v 0 q 1.9,0 3.08,0.48 1.18,0.49 1.86,1.5 v 0 q 0.44,0.68 0.68,1.54 0.25,0.86 0.25,1.99 v 0 q 0,0.96 -0.18,1.93 -0.18,0.97 -0.5,1.87 -0.32,0.89 -0.77,1.67 -0.45,0.78 -1,1.38 v 0 q -1.04,1.12 -2.39,1.57 -1.36,0.46 -3.34,0.46 v 0 q -1.92,0 -3.09,-0.4 -1.16,-0.4 -1.85,-1.28 v 0 q -0.48,-0.62 -0.76,-1.56 -0.27,-0.95 -0.27,-2.38 v 0 q 0,-2.45 0.87,-4.38 0.87,-1.93 2.48,-3.05 v 0 q 0.97,-0.68 2.16,-1.01 1.19,-0.33 2.77,-0.33 z M 19.5,-1.37 v 0 q 0.51,0 0.96,-0.45 0.45,-0.45 0.84,-1.21 0.38,-0.76 0.7,-1.73 0.32,-0.97 0.54,-2.01 0.22,-1.03 0.35,-2.06 0.12,-1.02 0.12,-1.86 v 0 q 0,-1.14 -0.23,-1.57 -0.24,-0.43 -0.68,-0.43 v 0 q -0.5,0 -0.97,0.44 -0.46,0.44 -0.87,1.18 -0.4,0.73 -0.72,1.69 -0.32,0.96 -0.55,1.98 -0.24,1.01 -0.36,2 -0.12,0.99 -0.12,1.83 v 0 q 0,1.26 0.28,1.73 0.27,0.47 0.71,0.47 z M 30.24,0 29.42,-13.99 h 5.02 l 0.75,9.47 4.59,-9.47 h 2.18 L 35.44,0 Z m 10.18,0 2.97,-13.99 h 9.28 l -0.35,1.67 h -4.5 l -0.92,4.25 h 3.76 l -0.35,1.66 h -3.77 l -1.01,4.71 h 4.49 L 49.69,0 Z m 24.81,-10.67 v 0 q 0,1.3 -0.73,2.41 -0.72,1.1 -2.4,1.67 v 0 L 64.66,0 H 59.74 L 57.8,-6.1 H 57.56 L 56.26,0 H 51.5 l 2.98,-13.99 h 5.79 q 1.02,0 1.92,0.12 0.9,0.12 1.58,0.48 0.67,0.37 1.06,1.02 0.4,0.65 0.4,1.7 z m -7.38,3.16 h 1.03 q 0.58,0 0.98,-0.39 0.41,-0.39 0.67,-0.94 0.25,-0.55 0.36,-1.18 0.11,-0.62 0.11,-1.09 v 0 q 0,-0.57 -0.2,-0.98 -0.2,-0.41 -0.86,-0.41 v 0 h -0.99 z m 7.6,7.51 2.98,-13.99 h 9.27 l -0.35,1.67 h -4.49 l -0.93,4.25 h 3.77 l -0.35,1.66 h -3.77 l -1.02,4.71 h 4.5 L 74.73,0 Z M 84.29,-13.99 81.3,0 h -4.76 l 2.97,-13.99 z m 6.92,9.08 0.33,-1.48 h 5.71 L 95.97,0 h -2.6 l -0.42,-1.41 h -0.08 q -0.58,0.66 -1.36,1.12 -0.78,0.47 -2.04,0.47 v 0 q -0.97,0 -1.86,-0.32 -0.89,-0.32 -1.59,-1.02 -0.69,-0.69 -1.11,-1.82 -0.42,-1.12 -0.42,-2.71 v 0 q 0,-1.71 0.53,-3.26 0.53,-1.54 1.59,-2.72 1.05,-1.18 2.64,-1.86 1.59,-0.68 3.7,-0.68 v 0 q 1.63,0 2.85,0.37 1.21,0.38 2.29,0.84 v 0 l -0.84,4.27 h -3.72 q 0.02,-0.24 0.06,-0.57 0.05,-0.33 0.07,-0.69 0.02,-0.37 0.04,-0.72 0.02,-0.35 0.02,-0.62 v 0 q 0,-0.17 -0.02,-0.4 -0.02,-0.24 -0.11,-0.46 -0.09,-0.22 -0.26,-0.36 -0.18,-0.14 -0.51,-0.14 v 0 q -0.57,0 -1.05,0.47 -0.47,0.47 -0.84,1.26 -0.38,0.78 -0.65,1.77 -0.28,0.99 -0.47,2.02 -0.18,1.02 -0.28,2 -0.1,0.98 -0.1,1.71 v 0 q 0,0.22 0.02,0.55 0.02,0.33 0.14,0.65 0.12,0.32 0.36,0.55 0.23,0.23 0.67,0.23 v 0 q 0.72,0 1.41,-0.79 0.68,-0.79 1.03,-2.64 v 0 z M 112.63,-13.99 109.61,0 h -5.15 L 102.01,-10.12 99.85,0 h -1.98 l 2.97,-13.99 h 5.27 l 2.31,10.24 2.19,-10.24 z"
                 transform="translate(0.15000001,14.21)"
                 id="path10" />
            </g>
          </g>
        </g>
      </g>
      <g
         data-gra="path-slogan"
         fill-rule=""
         class="tp-slogan iconsvg-slogansvg"
         fill="#cc2229"
         transform="translate(4.2650566,64.402275)"
         opacity="1"
         id="g17">
        <rect
           width="0"
           id="rect14"
           height="0"
           x="0"
           y="0" />
        <rect
           x="105.23"
           width="0"
           id="rect15"
           height="0"
           y="0" />
        <g
           id="g16">
          <g
             id="g15">
            <path
               d="M 1.08,-7.87 V 0 H 3.59 C 4.03,0 4.43,-0.05 4.8,-0.14 5.17,-0.24 5.48,-0.38 5.75,-0.58 6.01,-0.77 6.22,-1.01 6.36,-1.3 6.5,-1.58 6.58,-1.92 6.58,-2.3 6.58,-2.85 6.42,-3.28 6.1,-3.59 5.78,-3.9 5.33,-4.1 4.75,-4.19 V -4.24 C 5.22,-4.36 5.56,-4.57 5.78,-4.89 6.01,-5.21 6.12,-5.56 6.12,-5.95 6.12,-6.3 6.05,-6.59 5.92,-6.83 5.79,-7.08 5.61,-7.28 5.37,-7.43 5.13,-7.58 4.85,-7.69 4.52,-7.76 4.19,-7.84 3.82,-7.87 3.42,-7.87 Z m 2.16,3.36 H 2.08 v -2.57 h 1.21 c 0.61,0 1.08,0.09 1.38,0.28 0.31,0.19 0.47,0.5 0.47,0.93 0,0.44 -0.15,0.78 -0.44,1.01 -0.29,0.23 -0.78,0.35 -1.46,0.35 z m 0.2,3.72 H 2.08 v -2.98 h 1.36 c 0.7,0 1.23,0.12 1.6,0.34 0.37,0.23 0.55,0.59 0.55,1.08 0,0.53 -0.19,0.93 -0.56,1.18 -0.38,0.25 -0.91,0.38 -1.59,0.38 z M 11.48,-3.2 H 9.12 l 0.37,-1.2 c 0.15,-0.44 0.28,-0.88 0.41,-1.32 0.13,-0.43 0.25,-0.88 0.37,-1.34 h 0.05 c 0.13,0.46 0.26,0.91 0.38,1.34 0.13,0.44 0.27,0.88 0.41,1.32 z m 0.26,0.8 0.74,2.4 h 1.07 L 10.88,-7.87 H 9.76 L 7.09,0 h 1.02 l 0.76,-2.4 z m 2.92,-5.47 V 0 h 0.95 v -4.12 c 0,-0.41 -0.01,-0.83 -0.04,-1.24 -0.03,-0.41 -0.06,-0.82 -0.09,-1.22 h 0.05 l 0.85,1.62 2.86,4.96 h 1.03 v -7.87 h -0.95 v 4.07 c 0,0.41 0.01,0.83 0.04,1.26 0.03,0.43 0.06,0.84 0.08,1.24 H 19.39 L 18.54,-2.93 15.7,-7.87 Z m 7.77,0 V 0 h 0.99 V -2.5 L 24.78,-4.09 27.13,0 h 1.12 l -2.85,-4.87 2.46,-3 h -1.12 l -3.28,3.95 H 23.42 V -7.87 Z M 34.7,0.14 c 0.5,0 0.95,-0.09 1.37,-0.28 0.41,-0.2 0.76,-0.47 1.06,-0.83 0.3,-0.35 0.54,-0.78 0.7,-1.29 0.16,-0.51 0.25,-1.08 0.25,-1.71 0,-0.63 -0.09,-1.19 -0.25,-1.69 -0.16,-0.5 -0.4,-0.92 -0.7,-1.27 -0.3,-0.35 -0.65,-0.62 -1.06,-0.8 -0.42,-0.19 -0.87,-0.29 -1.37,-0.29 -0.49,0 -0.95,0.1 -1.36,0.28 -0.41,0.18 -0.76,0.45 -1.06,0.8 -0.3,0.35 -0.53,0.77 -0.69,1.27 -0.16,0.5 -0.25,1.07 -0.25,1.7 0,0.63 0.09,1.2 0.25,1.71 0.16,0.51 0.39,0.94 0.69,1.29 0.3,0.36 0.65,0.63 1.06,0.83 0.41,0.19 0.87,0.28 1.36,0.28 z m 0,-0.87 c -0.35,0 -0.67,-0.08 -0.95,-0.23 -0.28,-0.15 -0.53,-0.37 -0.73,-0.65 -0.21,-0.29 -0.36,-0.63 -0.48,-1.02 -0.11,-0.4 -0.16,-0.85 -0.16,-1.34 0,-0.49 0.05,-0.93 0.16,-1.32 0.12,-0.39 0.27,-0.73 0.48,-1 0.2,-0.27 0.45,-0.48 0.73,-0.63 0.28,-0.15 0.6,-0.22 0.95,-0.22 0.36,0 0.67,0.07 0.96,0.22 0.28,0.15 0.53,0.36 0.73,0.63 0.2,0.27 0.36,0.61 0.47,1 0.12,0.39 0.17,0.83 0.17,1.32 0,0.49 -0.05,0.94 -0.17,1.34 -0.11,0.39 -0.27,0.73 -0.47,1.02 -0.2,0.28 -0.45,0.5 -0.73,0.65 -0.29,0.15 -0.6,0.23 -0.96,0.23 z m 5.07,-7.14 V 0 h 0.99 v -3.53 h 3 v -0.84 h -3 v -2.66 h 3.54 v -0.84 z m 8.35,0 V 0 h 4.44 v -0.85 h -3.44 v -7.02 z m 5.83,0 V 0 h 1 v -7.87 z m 3.16,0 V 0 h 2.51 c 0.44,0 0.84,-0.05 1.21,-0.14 0.37,-0.1 0.68,-0.24 0.95,-0.44 0.26,-0.19 0.46,-0.43 0.61,-0.72 0.14,-0.28 0.21,-0.62 0.21,-1 0,-0.55 -0.16,-0.98 -0.48,-1.29 -0.32,-0.31 -0.76,-0.51 -1.34,-0.6 v -0.05 c 0.46,-0.12 0.81,-0.33 1.03,-0.65 0.23,-0.32 0.34,-0.67 0.34,-1.06 0,-0.35 -0.07,-0.64 -0.2,-0.88 -0.13,-0.25 -0.32,-0.45 -0.55,-0.6 -0.24,-0.15 -0.52,-0.26 -0.85,-0.33 -0.34,-0.08 -0.7,-0.11 -1.1,-0.11 z m 2.16,3.36 H 58.1 v -2.57 h 1.22 c 0.61,0 1.07,0.09 1.38,0.28 0.31,0.19 0.46,0.5 0.46,0.93 0,0.44 -0.14,0.78 -0.43,1.01 -0.3,0.23 -0.78,0.35 -1.46,0.35 z m 0.2,3.72 H 58.1 v -2.98 h 1.37 c 0.7,0 1.23,0.12 1.6,0.34 0.37,0.23 0.55,0.59 0.55,1.08 0,0.53 -0.19,0.93 -0.56,1.18 -0.38,0.25 -0.91,0.38 -1.59,0.38 z m 5.69,-3.35 v -2.93 h 1.32 c 0.62,0 1.09,0.11 1.42,0.31 0.32,0.21 0.49,0.58 0.49,1.1 0,0.51 -0.17,0.89 -0.49,1.14 -0.33,0.25 -0.8,0.38 -1.42,0.38 z M 68.48,0 h 1.13 l -1.99,-3.43 c 0.54,-0.14 0.96,-0.39 1.28,-0.76 0.32,-0.37 0.48,-0.86 0.48,-1.47 0,-0.41 -0.06,-0.76 -0.2,-1.04 -0.14,-0.28 -0.33,-0.5 -0.57,-0.68 -0.24,-0.18 -0.54,-0.3 -0.88,-0.38 -0.34,-0.07 -0.71,-0.11 -1.11,-0.11 H 64.16 V 0 h 1 v -3.32 h 1.43 z m 2.66,-7.87 V 0 h 4.65 v -0.85 h -3.66 v -2.86 h 2.99 v -0.85 h -2.99 v -2.47 h 3.54 v -0.84 z m 6.32,0 V 0 h 4.44 v -0.85 h -3.44 v -7.02 z m 9.22,4.67 h -2.37 l 0.37,-1.2 c 0.15,-0.44 0.28,-0.88 0.41,-1.32 0.13,-0.43 0.25,-0.88 0.37,-1.34 h 0.05 c 0.13,0.46 0.26,0.91 0.39,1.34 0.12,0.44 0.26,0.88 0.4,1.32 z m 0.25,0.8 0.74,2.4 h 1.07 L 86.08,-7.87 H 84.95 L 82.28,0 h 1.02 l 0.76,-2.4 z m 2.93,-5.47 V 0 h 0.94 v -4.12 c 0,-0.41 -0.01,-0.83 -0.04,-1.24 -0.03,-0.41 -0.06,-0.82 -0.09,-1.22 h 0.05 l 0.85,1.62 2.86,4.96 h 1.03 v -7.87 h -0.95 v 4.07 c 0,0.41 0.02,0.83 0.04,1.26 0.03,0.43 0.06,0.84 0.08,1.24 h -0.05 l -0.85,-1.63 -2.84,-4.94 z m 7.76,0 V 0 h 2.02 c 0.59,0 1.11,-0.09 1.57,-0.27 0.45,-0.18 0.84,-0.44 1.15,-0.78 0.31,-0.34 0.55,-0.76 0.71,-1.25 0.16,-0.49 0.24,-1.05 0.24,-1.67 0,-1.26 -0.32,-2.22 -0.95,-2.89 -0.63,-0.68 -1.56,-1.01 -2.77,-1.01 z m 1.9,7.05 h -0.9 v -6.24 h 0.9 c 0.92,0 1.61,0.27 2.07,0.8 0.46,0.52 0.69,1.29 0.69,2.29 0,1 -0.23,1.77 -0.69,2.33 -0.46,0.55 -1.15,0.82 -2.07,0.82 z"
               transform="translate(-1.08,8.016)"
               id="path15" />
          </g>
        </g>
      </g>
    </g>
  </g>
  <defs
     v-gra="od"
     id="defs19" />
</svg>
