<?xml version="1.0" standalone="no"?>
<!DOCTYPE svg PUBLIC "-//W3C//DTD SVG 20010904//EN"
 "http://www.w3.org/TR/2001/REC-SVG-20010904/DTD/svg10.dtd">
<svg version="1.0" xmlns="http://www.w3.org/2000/svg"
 width="700.000000pt" height="700.000000pt" viewBox="0 0 700.000000 700.000000"
 preserveAspectRatio="xMidYMid meet">
<metadata>
Created by potrace 1.14, written by Peter Selinger 2001-2017
</metadata>
<g transform="translate(0.000000,700.000000) scale(0.100000,-0.100000)"
fill="#000000" stroke="none">
<path d="M4163 6073 c-106 -54 -235 -130 -281 -164 l-23 -17 28 -20 c32 -22
113 -67 258 -144 516 -273 733 -392 745 -411 12 -18 14 -143 15 -762 1 -407
-2 -751 -7 -765 -9 -28 -21 -36 -118 -88 -36 -19 -92 -49 -125 -67 -33 -18
-188 -102 -345 -187 -400 -217 -441 -241 -433 -249 5 -4 95 -51 202 -104 219
-110 233 -112 333 -60 414 215 540 284 755 413 81 49 156 101 166 115 18 24
19 64 22 1002 l3 977 -21 22 c-20 20 -252 149 -522 291 -60 32 -166 88 -235
125 -182 98 -267 141 -289 145 -11 2 -69 -21 -128 -52z"/>
<path d="M2520 6095 c-73 -20 -204 -83 -320 -155 -52 -32 -160 -91 -240 -132
-80 -42 -170 -89 -200 -105 -30 -16 -97 -52 -148 -78 -51 -27 -98 -57 -103
-67 -6 -10 -10 -105 -10 -216 0 -261 -1 -252 13 -252 6 0 56 23 112 51 208
105 431 222 444 232 16 13 252 136 370 193 118 57 156 59 232 14 30 -18 156
-84 280 -148 124 -63 230 -118 235 -122 6 -4 78 -42 160 -85 83 -43 155 -81
160 -85 6 -4 66 -36 135 -72 69 -37 172 -91 229 -121 57 -30 108 -61 112 -70
8 -13 17 -509 19 -969 0 -136 1 -147 18 -141 9 3 103 53 209 110 132 72 195
112 200 126 10 31 11 1078 0 1102 -9 21 -142 98 -632 365 -27 15 -86 47 -130
70 -44 24 -93 51 -110 60 -16 9 -79 43 -140 75 -60 32 -139 75 -175 95 -36 21
-81 47 -100 57 -199 111 -323 181 -396 224 -99 59 -140 67 -224 44z"/>
<path d="M2440 5127 c-28 -10 -223 -115 -355 -189 -11 -7 -40 -23 -65 -36
-131 -70 -198 -106 -225 -122 -16 -9 -70 -39 -120 -65 -49 -26 -112 -60 -140
-75 -65 -35 -255 -138 -410 -220 -81 -44 -352 -186 -414 -218 -67 -35 -64 -6
-65 -615 -1 -304 3 -561 7 -572 5 -12 51 -41 115 -72 59 -28 153 -77 210 -107
56 -31 104 -56 107 -56 3 0 5 247 5 550 0 373 3 557 11 573 12 27 17 30 184
117 66 35 143 75 170 90 28 15 88 48 135 72 47 25 117 63 155 83 39 21 95 52
125 68 131 71 539 292 585 317 29 16 60 26 74 23 20 -3 294 -140 326 -163 6
-4 82 -44 170 -90 88 -46 165 -86 170 -90 6 -4 90 -49 187 -99 172 -89 178
-91 183 -69 3 13 4 111 3 218 -3 222 -5 228 -88 271 -95 51 -433 236 -605 332
-99 55 -200 111 -224 125 -55 29 -159 39 -211 19z"/>
<path d="M5777 4364 c-2 -14 -5 -265 -6 -557 -2 -358 -6 -535 -13 -544 -11
-14 -61 -43 -200 -117 -175 -92 -264 -140 -308 -164 -25 -14 -162 -88 -305
-164 -143 -77 -287 -155 -320 -173 -221 -120 -254 -135 -292 -129 -32 5 -85
32 -263 132 -145 81 -586 320 -662 358 -50 25 -93 42 -96 39 -4 -3 -7 -105 -7
-225 0 -218 0 -218 24 -244 14 -14 28 -26 33 -26 5 0 48 -22 96 -49 98 -55
177 -98 272 -149 163 -87 437 -236 469 -254 89 -51 117 -62 152 -61 35 1 220
95 694 353 28 15 88 48 135 72 47 25 110 59 140 75 30 16 100 54 155 83 400
212 703 375 718 388 16 14 17 54 17 573 0 375 -4 566 -11 582 -13 30 16 13
-338 199 -66 35 -77 35 -84 2z"/>
<path d="M2532 4178 c-29 -4 -70 -19 -92 -33 -22 -14 -41 -25 -44 -25 -2 0
-50 -26 -107 -59 -57 -32 -138 -76 -179 -98 -41 -22 -142 -77 -225 -123 -82
-45 -192 -105 -244 -134 -53 -29 -101 -62 -110 -77 -14 -23 -16 -127 -16
-1002 0 -1121 -14 -986 110 -1053 39 -20 87 -48 107 -61 21 -13 39 -23 42 -23
2 0 55 -29 117 -63 63 -35 141 -79 174 -97 33 -18 99 -55 146 -81 292 -164
309 -172 379 -171 42 0 69 7 105 28 159 87 277 156 295 171 22 19 26 33 10 33
-6 0 -27 10 -48 23 -37 23 -149 84 -332 180 -52 27 -117 62 -145 77 -27 15
-150 80 -272 144 -123 65 -226 123 -230 129 -11 16 -12 1518 -2 1538 4 8 40
32 79 52 39 21 155 84 258 141 103 57 232 127 287 156 55 29 105 56 110 60 6
4 46 26 90 50 90 48 195 110 195 115 0 1 -37 24 -82 50 -46 26 -99 56 -118 67
-65 38 -150 80 -178 87 -15 4 -51 4 -80 -1z"/>
<path d="M2778 3377 c-169 -89 -264 -141 -291 -159 -61 -43 -60 -31 -58 -600
1 -286 6 -529 10 -541 6 -14 42 -40 97 -70 49 -26 118 -63 154 -83 54 -30 222
-121 590 -322 30 -16 129 -70 220 -120 91 -49 192 -104 225 -122 87 -47 134
-73 185 -102 25 -14 77 -42 115 -63 39 -20 98 -53 131 -71 45 -25 76 -35 119
-38 74 -4 87 1 250 89 135 74 587 316 690 370 61 31 119 66 130 77 19 17 20
32 21 238 0 149 -3 220 -10 223 -6 2 -60 -23 -121 -55 -60 -32 -180 -95 -265
-140 -85 -45 -243 -129 -351 -188 -107 -59 -217 -115 -242 -125 -68 -26 -133
-16 -216 34 -56 33 -196 110 -491 269 -36 19 -78 42 -95 52 -16 10 -66 37
-110 60 -44 24 -127 69 -185 100 -58 32 -154 83 -215 115 -137 71 -173 95
-182 120 -3 11 -6 259 -5 552 1 304 -3 535 -8 538 -5 3 -46 -14 -92 -38z"/>
</g>
</svg>
